<svg width="89" height="86" viewBox="0 0 89 86" fill="none" xmlns="http://www.w3.org/2000/svg">
<mask id="mask0_34_572" style="mask-type:alpha" maskUnits="userSpaceOnUse" x="0" y="0" width="89" height="86">
<rect width="89" height="85.0444" rx="20" fill="#D9D9D9"/>
</mask>
<g mask="url(#mask0_34_572)">
<path d="M44.5029 -0.527809C59.2196 -0.527809 73.9363 -0.527809 88.653 -0.533691C88.9353 -0.533691 89 -0.46899 89 -0.186656C88.9941 28.0174 88.9941 56.2155 89 84.4195C89 84.7018 88.9353 84.7666 88.653 84.7666C59.2196 84.7607 29.7804 84.7607 0.347036 84.7666C0.0647016 84.7666 0 84.7018 0 84.4195C0.0117639 56.2155 0.0117639 28.0174 0.00588196 -0.186656C0.00588196 -0.46899 0.0705835 -0.533691 0.352918 -0.533691C15.0696 -0.527809 29.7863 -0.527809 44.5029 -0.527809ZM54.7213 59.7544C55.1907 59.7946 55.4209 60.2792 55.4325 60.7501V60.7501C55.4363 60.9028 55.4117 61.0539 55.3818 61.2037C55.2796 61.715 55.4667 61.858 56.0845 61.8269C56.2492 61.821 56.408 61.7857 56.5727 61.7857C56.8609 61.7798 56.9727 61.6093 56.9786 61.3505C56.9845 61.1269 56.9786 60.8975 56.9786 60.674C56.9786 59.5917 57.0139 58.5095 56.9786 57.4331C56.9433 56.3331 56.8845 56.3155 55.7787 56.3684C55.514 56.3802 55.3846 56.4743 55.3787 56.7449C55.3728 57.0331 55.3552 57.3213 55.3375 57.6095C55.3022 58.2742 55.1669 58.3977 54.4846 58.3977C54.3494 58.3977 54.2082 58.3801 54.0729 58.3683C53.8082 58.3448 53.6612 58.2095 53.6612 57.933C53.6553 57.6566 53.6318 57.3801 53.6259 57.1037C53.6141 56.4037 53.5729 56.3567 52.8671 56.3743C52.0436 56.392 51.9907 56.4508 52.0024 57.2919C52.0201 58.4977 52.0319 59.7035 52.0554 60.9034C52.0671 61.8151 52.1319 61.8739 53.0553 61.8387C53.0671 61.8387 53.0788 61.8387 53.0906 61.8387C53.4435 61.8328 53.6259 61.6681 53.6317 61.3034C53.6376 60.9387 53.6435 60.574 53.6553 60.2094C53.6612 60.0152 53.7082 59.7858 53.9317 59.7741C54.1919 59.7618 54.4601 59.7321 54.7213 59.7544ZM43.3961 61.7352C43.4556 61.7339 43.5176 61.73 43.577 61.7335V61.7335C43.6193 61.736 43.6585 61.7457 43.6992 61.7579C44.352 61.954 44.6678 61.7177 44.6735 61.0328C44.6735 60.6681 44.6794 60.3035 44.6794 59.9388C44.6794 58.9506 44.6794 57.9566 44.6794 56.9684C44.6794 56.7213 44.6147 56.4625 44.3441 56.3978C43.9794 56.3155 43.5971 56.3037 43.2501 56.492C43.2089 56.5155 43.1795 56.5978 43.1736 56.6566V56.6566C43.1272 57.0749 43.1892 57.5042 43.183 57.9249C43.1797 58.1434 43.1762 58.3621 43.1732 58.5803C43.1692 58.8642 42.9441 59.2561 42.8266 58.9977V58.9977C42.7619 58.8624 42.6854 58.7389 42.5854 58.6212C42.156 58.0918 41.6914 57.5919 41.3384 57.0154C41.0267 56.5096 40.6679 56.2978 40.0797 56.3508C39.3974 56.4096 39.3445 56.4273 39.3503 57.1331C39.3562 58.3624 39.368 59.5976 39.3621 60.827C39.3562 61.9857 39.3739 61.7563 40.3444 61.8034C40.7032 61.821 40.8326 61.6563 40.8385 61.3093C40.8502 60.6799 40.8855 60.0564 40.9208 59.4271C40.9267 59.3212 40.9091 59.1624 41.0267 59.1271C41.1443 59.0918 41.2208 59.2329 41.2796 59.3153C41.6031 59.7447 41.9149 60.1917 42.2384 60.6211C42.3609 60.7826 42.4465 60.9969 42.6651 61.0691C42.6884 61.0768 42.7048 61.093 42.7176 61.114V61.114C42.725 61.1261 42.7338 61.1404 42.7368 61.1542C42.8132 61.5087 43.0813 61.7421 43.3961 61.7352ZM65.7168 53.4447C65.9369 53.4484 66.1603 53.489 66.3768 53.5285C66.8965 53.6234 67.4335 53.5913 67.9543 53.6157C70.5777 53.7333 73.1952 53.9686 75.8244 53.998C76.842 54.0098 77.8537 54.1686 78.8713 54.1509C79.2183 54.145 79.3242 54.0039 79.2477 53.6921C79.2242 53.598 79.1889 53.5039 79.1536 53.4098C78.9712 52.951 78.5242 52.951 78.1478 52.8569C77.8066 52.7687 77.5713 52.6216 77.4125 52.2922C76.9714 51.3629 76.342 50.61 75.4068 50.1335C74.8186 49.8336 74.2598 49.4689 73.6716 49.163C72.8011 48.716 71.8835 48.369 70.9247 48.1749C69.6013 47.9043 68.2778 47.6161 66.9485 47.3749C65.9133 47.1867 64.8663 47.0985 63.8428 46.8455C63.3017 46.7102 62.7253 46.7102 62.1665 46.6103C60.3607 46.2867 58.5255 46.1573 56.708 45.9632C54.3494 45.7103 51.973 45.5574 49.5967 45.4927C45.9911 45.3986 42.3796 45.3339 38.7739 45.5633C37.621 45.6397 36.4623 45.628 35.3094 45.7338C33.7742 45.875 32.2332 45.9809 30.7039 46.1691C29.4451 46.322 28.1805 46.4514 26.9276 46.6161C26.0689 46.7279 25.216 46.8808 24.3631 47.0161C23.2985 47.1867 22.2279 47.3514 21.1633 47.5278C21.0801 47.5423 20.9946 47.5523 20.9234 47.5921C20.8334 47.6424 20.7474 47.7156 20.6449 47.7259V47.7259C20.5876 47.7317 20.5314 47.7152 20.4752 47.7026C20.3928 47.6842 20.3072 47.6985 20.2281 47.7161C18.9105 48.0043 17.593 48.2984 16.2754 48.5866C16.1225 48.6219 16.046 48.716 15.9695 48.8395C15.6107 49.4277 15.1519 49.9453 14.7873 50.5276C14.5285 50.9453 14.1991 51.257 13.6344 51.3099C12.8639 51.3805 12.1051 51.5629 11.3463 51.7099C11.2516 51.7268 11.149 51.7379 11.0589 51.7768C10.9255 51.8342 10.7915 51.9296 10.7084 52.0487V52.0487C10.6659 52.1096 10.6121 52.1637 10.5558 52.2123C10.2866 52.4446 10.2471 52.8105 10.0817 53.1039C10.0523 53.1569 10.1111 53.2333 10.1817 53.2392C10.8057 53.2965 11.4074 53.5376 12.0465 53.4474C12.0816 53.4424 12.1165 53.4407 12.1518 53.4435V53.4435C12.2575 53.4521 12.3573 53.5105 12.4618 53.529C12.4941 53.5348 12.5269 53.537 12.558 53.5392C13.8167 53.6686 15.0755 53.8039 16.3342 53.9098C16.6719 53.9366 17.0144 53.9927 17.3529 53.9223C17.419 53.9086 17.4862 53.8979 17.5537 53.9006V53.9006C17.6343 53.9038 17.7139 53.9183 17.7915 53.9404C18.2853 54.0816 18.7975 54.0548 19.3046 54.1039C20.628 54.2333 21.9574 54.2215 23.2867 54.345C23.9414 54.4061 24.6065 54.4514 25.2624 54.3576C25.3412 54.3464 25.4208 54.3403 25.5004 54.3427C25.5602 54.3444 25.6199 54.3462 25.6797 54.3479C25.873 54.3536 26.0699 54.4219 26.263 54.4333V54.4333C29.0098 54.5097 31.7567 54.4627 34.4977 54.4686C34.5653 54.4686 34.6346 54.4711 34.7044 54.472C35.0865 54.4768 35.4698 54.3538 35.8519 54.351C35.8964 54.3507 35.9408 54.3504 35.9853 54.3501C36.3045 54.3476 36.6315 54.4157 36.9505 54.4039V54.4039C38.8445 54.3039 40.7326 54.2274 42.6207 54.0862C42.9949 54.0578 43.3844 54.0828 43.7584 53.9922C43.9396 53.9483 44.123 53.9032 44.3094 53.8998V53.8998C44.4187 53.8978 44.5269 53.9134 44.6351 53.9289C44.9681 53.9763 45.298 53.9292 45.6323 53.9039C47.7204 53.7568 49.8026 53.5686 51.8966 53.5274V53.5274C52.1403 53.5274 52.39 53.4471 52.6336 53.4398C52.7062 53.4376 52.7782 53.4355 52.8494 53.4333C53.6082 53.4863 54.3552 53.4157 55.114 53.3686V53.3686C55.1858 53.3686 55.2354 53.2977 55.3071 53.297C55.7617 53.2925 56.2162 53.2854 56.6708 53.2798C56.9861 53.2759 57.3103 53.3392 57.6256 53.3392V53.3392C58.4079 53.3333 59.1902 53.3275 59.9784 53.3216V53.3216C60.3183 53.3216 60.6719 53.2857 61.0115 53.2987C61.4018 53.3136 61.7922 53.3059 62.1825 53.3037C62.3943 53.3026 62.6135 53.4039 62.8253 53.4039V53.4039C63.3958 53.4333 63.9664 53.4686 64.5369 53.4863C64.5603 53.4869 64.5839 53.4881 64.6076 53.4896C64.9769 53.5123 65.347 53.4385 65.7168 53.4447V53.4447ZM51.0084 28.1938C51.0084 27.97 51.2296 27.9604 51.3331 28.1588C51.5878 28.6466 51.7689 29.1538 52.0377 29.6173C52.3142 30.0937 52.5024 30.6172 52.7377 31.1172C52.8495 31.3642 53.02 31.5054 53.3259 31.4936C54.467 31.4289 55.5904 31.5348 56.6374 32.0289C57.2374 32.3112 57.8197 32.6347 58.4079 32.9406C58.5314 33.0053 58.6549 33.1053 58.7902 33.0229C58.9373 32.9406 58.8314 32.7994 58.8314 32.6818C58.7785 31.4701 58.2197 30.4172 57.7785 29.3232C57.5197 28.6938 57.1609 28.1174 56.7904 27.5586C56.3316 26.8763 55.7728 26.2469 55.1964 25.6528C53.7729 24.1941 52.0789 23.1471 50.1555 22.4707C49.1438 22.1119 48.1027 21.9119 47.0322 21.8413C45.5676 21.7472 44.1089 21.7648 42.6913 22.1589C41.2267 22.5648 39.8444 23.1706 38.5739 24.0412C36.3623 25.5587 34.733 27.535 33.7213 30.0231C33.3154 31.0172 33.0272 32.0289 32.8272 33.0817C32.5861 34.3522 32.692 35.611 32.7155 36.8756C32.7214 37.105 32.8272 37.3403 32.9037 37.5638C32.9566 37.7285 33.0684 37.7873 33.2507 37.7814C34.9683 37.7226 36.6388 37.3697 38.2916 36.9521C39.7562 36.5874 41.1561 36.0462 42.5501 35.4698C43.5207 35.064 44.4912 34.6522 45.4499 34.2111C46.2146 33.8582 46.9734 33.4994 47.7792 33.2523C48.1792 33.1288 48.2733 33.1994 48.285 33.6288C48.2968 33.9287 48.285 34.2346 48.3027 34.5346C48.3262 34.8993 48.185 35.1228 47.8321 35.2581C47.4439 35.4051 47.0734 35.5933 46.6969 35.7639C45.7323 36.1933 44.7676 36.6109 43.8089 37.0462C42.7678 37.5226 41.6737 37.8873 40.5914 38.2873C39.8738 38.552 39.1268 38.7343 38.3975 38.9461C37.8446 39.1107 37.2505 39.1872 36.674 39.299C34.8683 39.6695 33.0449 39.8107 31.2156 39.9283C29.3451 40.046 27.4688 39.9577 25.5983 40.0107C24.8748 40.0283 24.1396 39.9283 23.422 40.1224C23.1808 40.1871 23.0044 40.293 22.9455 40.5401C22.7808 41.2047 22.7456 41.8812 22.8279 42.5635C22.8632 42.8517 23.0338 43.0164 23.3396 43.0164C23.6161 43.0164 23.8925 43.034 24.169 43.0046C24.516 42.9634 24.6631 43.1222 24.6748 43.4458C24.6866 43.7869 24.6925 44.1222 24.6984 44.4633C24.7042 44.7221 24.816 44.8574 25.0866 44.8574C25.416 44.8574 25.7395 44.8692 26.063 44.7986C27.4923 44.5045 28.9393 44.3104 30.3862 44.2163C31.5156 44.1457 32.6214 43.9516 33.7507 43.8751C36.3741 43.7046 38.9915 43.4575 41.6208 43.4634C45.0911 43.4752 48.5615 43.3811 52.026 43.6457C53.8376 43.7869 55.661 43.8457 57.4668 44.0869C58.4079 44.2163 59.3667 44.2281 60.3137 44.3751C61.0077 44.4869 61.7077 44.5574 62.4018 44.6751C63.1958 44.8104 63.9899 44.9104 64.784 45.0045C65.1075 45.0398 65.2427 44.881 65.2369 44.5633C65.231 44.1986 65.2545 43.834 65.2427 43.4693C65.231 43.1281 65.3663 42.9752 65.7251 42.9458C66.3544 42.9046 66.9838 42.9399 67.6073 42.934C67.9249 42.9281 68.1014 42.7752 68.1014 42.4517C68.1014 42.1753 68.1308 41.8929 68.0896 41.6223C67.9543 40.8165 67.5955 40.0048 66.5368 40.0225C65.8015 40.0342 65.0545 39.893 64.3781 39.5637C62.7194 38.7519 61.2901 37.6108 59.8313 36.4992C58.5138 35.4933 57.3197 34.3111 55.7022 33.7287C54.7552 33.3876 53.8317 33.317 52.8671 33.5582C52.3554 33.6876 51.8495 33.817 51.3378 33.9464C51.1496 33.9934 50.979 33.964 51.0143 33.7346C51.0555 33.4523 50.9731 33.1876 50.9731 32.9112C50.9849 31.3407 50.9907 29.7643 51.0084 28.1938V28.1938ZM4.21149 59.0977C4.21149 59.7506 4.22913 60.4035 4.2056 61.0564C4.17619 61.9622 4.34089 61.921 5.14672 61.9328C5.25848 61.9328 5.36435 61.8857 5.47611 61.8681C5.74668 61.8328 5.87608 61.6798 5.87608 61.4152C5.87608 61.0034 5.88196 60.5917 5.88785 60.1741C5.88785 60.0505 5.87608 59.9153 5.98784 59.827C6.14077 59.6976 7.2407 59.7388 7.38187 59.8741C7.47009 59.9623 7.49362 60.0682 7.4995 60.1858C7.51127 60.6093 7.54068 61.0387 7.52303 61.4622C7.51127 61.7269 7.60538 61.8445 7.84654 61.8563C8.18769 61.8681 8.52297 61.8563 8.86412 61.8622C9.06999 61.8622 9.1641 61.7445 9.18175 61.5622C9.19939 61.3857 9.20527 61.2093 9.20527 61.0328C9.21704 59.7623 9.26998 58.4977 9.22292 57.2272C9.18763 56.2861 9.28174 56.339 8.35827 56.3331C8.25828 56.3331 8.15828 56.339 8.05829 56.3331C7.69949 56.3214 7.52891 56.4684 7.54068 56.8507C7.55244 57.1978 7.57009 57.5507 7.4995 57.9036C7.44068 58.2095 7.27011 58.3271 6.97601 58.3212C6.19959 58.2977 5.9349 58.186 5.88785 57.8272C5.86432 57.6507 5.90549 57.4801 5.95843 57.3095C6.13489 56.6802 5.74668 56.2331 5.11731 56.3155C4.97026 56.3331 4.81733 56.3449 4.6644 56.339C4.34089 56.3273 4.22913 56.4743 4.22325 56.7919C4.19384 57.5625 4.14678 58.3271 4.21149 59.0977ZM71.9776 56.3214C70.066 56.1802 69.0072 57.6389 68.9425 58.9683C68.8602 60.6211 70.2248 62.0033 71.8541 61.9386C73.501 61.8681 74.7598 60.8152 74.7715 59.0036C74.7774 57.6095 73.4422 56.3331 71.9776 56.3214ZM77.8125 62.0092C78.2184 61.9857 78.5066 61.9857 78.7948 61.9563C79.1948 61.9151 79.4947 61.6622 79.4712 61.3622C79.4418 61.0034 79.5888 60.6564 79.483 60.2976C79.4477 60.1741 79.5124 60.0094 79.3418 59.9505C79.1948 59.8976 79.083 59.9741 78.9712 60.0741C78.4772 60.5211 78.236 60.5623 77.6537 60.2623C77.1831 60.0211 76.9008 59.5917 76.9067 59.08C76.9126 58.5506 77.2243 58.0801 77.689 57.8742C78.0948 57.6919 78.6007 57.6742 78.9477 58.133C79.0242 58.233 79.1418 58.2977 79.283 58.2448C79.43 58.186 79.4712 58.0683 79.4771 57.9154C79.483 57.6154 79.5124 57.3154 79.5242 57.0154C79.53 56.7919 79.4712 56.5331 79.2653 56.4684C78.9183 56.3567 78.5948 56.192 78.2007 56.1626C77.736 56.1273 77.3537 56.3449 76.9243 56.392C76.6126 56.4272 76.3832 56.6331 76.142 56.8213C75.8126 57.0801 75.6479 57.4566 75.4656 57.8036C75.1774 58.3448 74.995 58.9918 75.1421 59.5388C75.2656 59.9917 75.3891 60.4917 75.7362 60.9152C76.3244 61.6387 77.042 61.9563 77.8125 62.0092ZM28.2981 56.3508C28.2916 56.3508 28.2864 56.3477 28.2864 56.3412V56.3412C28.2864 56.3347 28.2811 56.3273 28.2746 56.3273C27.9021 56.327 27.5296 56.3156 27.157 56.3273C26.6865 56.3449 26.5277 56.5096 26.5335 56.9802C26.5512 58.3977 26.4806 59.8153 26.5335 61.2328C26.5453 61.574 26.6453 61.7504 26.9865 61.7857C27.8629 61.8739 28.7393 61.8387 29.6216 61.7975C29.7274 61.7916 29.8333 61.7622 29.8804 61.6681C30.0627 61.3328 29.9745 60.974 29.8863 60.6446C29.8157 60.3858 29.551 60.3917 29.3157 60.3858C29.0393 60.3799 28.7628 60.3799 28.4864 60.3505C28.3452 60.3388 28.1687 60.3152 28.1511 60.1152C28.1393 59.9329 28.2981 59.9094 28.4217 59.8506C28.6216 59.7447 28.8393 59.7623 29.051 59.7564C29.9098 59.727 29.9627 59.6682 29.8333 58.8036C29.8274 58.7565 29.8157 58.7036 29.8098 58.6565C29.7921 58.4742 29.6863 58.3977 29.5098 58.3918C29.2216 58.3859 28.9334 58.3801 28.6452 58.3683C28.4569 58.3624 28.2217 58.3448 28.2099 58.1036C28.1981 57.8448 28.4393 57.7919 28.6393 57.7742C28.8863 57.7448 29.1392 57.7742 29.3922 57.7566C29.9216 57.7213 30.0568 57.5507 30.0215 57.0154C29.9863 56.5272 29.8392 56.3802 29.3451 56.3567C28.9961 56.345 28.6471 56.3507 28.2981 56.3508ZM16.4401 58.3801C16.4401 58.8918 16.4166 59.3447 16.446 59.7976C16.5401 61.1858 17.0871 61.874 18.5694 61.9504C18.9223 61.9681 19.2752 61.9504 19.6222 61.8857C20.3281 61.7504 21.1162 61.3152 21.2515 60.3152C21.3809 59.3447 21.3045 58.3859 21.3339 57.4213C21.3692 56.4214 21.3339 56.3978 20.3634 56.392C19.7693 56.3861 19.734 56.4331 19.734 57.0272C19.734 57.8566 19.734 58.6859 19.7163 59.5153C19.7105 59.8447 19.6458 60.1799 19.3693 60.3976C18.8046 60.8328 18.1635 60.5093 18.0812 59.7623C17.9929 58.9506 18.0282 58.1271 18.0282 57.3154C18.0282 56.3684 18.0165 56.3449 17.0518 56.4037C16.5518 56.4331 16.4401 56.539 16.446 57.0507C16.446 57.5095 16.493 57.9742 16.4401 58.3801ZM57.8374 59.2506C57.8432 59.9035 57.8315 60.5564 57.8432 61.2152C57.855 61.7093 58.0256 61.8798 58.5079 61.8798C59.302 61.8857 60.0901 61.8798 60.8842 61.8681C61.3136 61.8622 61.4312 61.7328 61.4312 61.2858C61.4312 61.1858 61.4254 61.0858 61.4254 60.9858C61.4018 60.5093 61.3195 60.427 60.8372 60.3917C60.5842 60.374 60.3313 60.3858 60.0843 60.374C59.896 60.3623 59.6961 60.3564 59.7019 60.0741C59.7078 59.8153 59.8725 59.7682 60.0784 59.7623C60.2548 59.7564 60.4313 59.7506 60.6078 59.7506C61.243 59.7388 61.243 59.7388 61.2195 59.1271C61.2136 59.0035 61.2195 58.8741 61.2136 58.7506C61.2018 58.4918 61.0724 58.3683 60.8077 58.3624C60.5313 58.3565 60.2548 58.3271 59.9784 58.3036C59.8372 58.2918 59.6843 58.2624 59.6725 58.086C59.6608 57.8919 59.8078 57.8272 59.9725 57.8213C60.2843 57.8036 60.6019 57.8036 60.9136 57.7801C61.2254 57.7625 61.3959 57.586 61.4136 57.2742C61.4195 57.1096 61.4018 56.9507 61.3901 56.786C61.3724 56.4508 61.1783 56.3273 60.8666 56.3331C60.0254 56.3508 59.1843 56.3273 58.3373 56.3802C57.9903 56.4037 57.8374 56.539 57.8374 56.886C57.8432 57.6683 57.8374 58.4565 57.8374 59.2506ZM80.0653 59.0888C80.0653 59.0937 80.0613 59.0977 80.0565 59.0977V59.0977C80.0516 59.0977 80.0476 59.1016 80.0476 59.1065C80.0474 59.7153 80.0243 60.3299 80.0535 60.9387C80.0888 61.7798 79.8594 61.821 80.8888 61.8269C80.9888 61.8269 81.0888 61.821 81.1888 61.8269C81.5299 61.8504 81.6946 61.7151 81.7005 61.3505C81.7064 61.0152 81.7593 60.674 81.7417 60.3388C81.7358 60.2564 81.7122 60.1446 81.8181 60.1094C81.9181 60.0741 81.9769 60.1682 82.0299 60.2329C82.3181 60.5976 82.6475 60.9387 82.8769 61.3328C83.1769 61.8622 83.6239 61.8916 84.1297 61.8504C84.2827 61.8387 84.4297 61.821 84.5768 61.8092C84.7238 61.7975 84.8944 61.8269 84.9767 61.6622C85.0532 61.5034 84.9591 61.374 84.8709 61.2505C84.4238 60.6329 83.9827 60.0035 83.518 59.4035C83.3415 59.18 83.318 58.9741 83.4651 58.7506C83.6651 58.4448 83.8356 58.1271 84.0709 57.8448C84.3415 57.5213 84.6179 57.1919 84.8062 56.8037C84.9238 56.5625 84.9297 56.392 84.5885 56.3861C84.3238 56.3802 84.0591 56.3625 83.8003 56.3273C83.4062 56.2743 83.1298 56.4214 82.918 56.7625C82.7063 57.1037 82.4592 57.4213 82.224 57.7389C82.1416 57.8507 82.0358 57.9624 81.8769 57.9154C81.7299 57.8683 81.7358 57.7213 81.7299 57.5978C81.724 57.4331 81.724 57.2684 81.724 57.1096C81.7122 56.4214 81.6887 56.392 81.0182 56.3567C80.8652 56.3508 80.7182 56.339 80.5653 56.339C80.2065 56.3331 80.0476 56.4978 80.0594 56.8684C80.077 57.6124 80.0654 58.3506 80.0653 59.0888ZM48.6674 59.7829C48.6674 59.7878 48.6713 59.7917 48.6762 59.7917V59.7917C48.6811 59.7917 48.685 59.7957 48.685 59.8006C48.685 60.1858 48.685 60.5711 48.685 60.9622C48.685 61.7975 48.8144 61.9092 49.6614 61.8328C49.7261 61.8269 49.7849 61.8034 49.8496 61.8034C50.2084 61.7975 50.3143 61.6093 50.3143 61.274C50.3026 60.2564 50.3261 59.2388 50.3143 58.2212C50.3084 57.8801 50.4437 57.7625 50.779 57.7507C51.4672 57.7213 51.4672 57.7095 51.4437 56.9978C51.4437 56.9096 51.4378 56.8213 51.4319 56.7331C51.426 56.5037 51.326 56.3861 51.0849 56.3861C50.0438 56.3802 49.0026 56.3743 47.9557 56.3684C47.7968 56.3684 47.638 56.4096 47.5851 56.5743C47.4792 56.9154 47.4498 57.2801 47.591 57.6036C47.6968 57.8566 47.9968 57.7507 48.2086 57.7507C48.5262 57.7566 48.6674 57.8977 48.6615 58.2095C48.6673 58.7359 48.6674 59.2565 48.6674 59.7829ZM24.2043 56.3096C23.0455 56.2567 22.3985 56.6096 22.1279 57.5095C21.9162 58.2095 22.2809 59.0506 22.9573 59.3329C23.3279 59.4859 23.6984 59.6329 24.0631 59.7976C24.2749 59.8917 24.3337 60.0741 24.3043 60.2976C24.269 60.5387 24.0866 60.5446 23.9102 60.5623C23.569 60.6034 23.2632 60.5446 22.9985 60.3093C22.7985 60.1388 22.5573 60.0858 22.3573 60.2917C22.2103 60.4388 22.0985 60.627 21.9927 60.8093C21.875 61.0093 21.9221 61.1858 22.0868 61.3505C22.3632 61.6269 22.7044 61.7798 23.0749 61.8681C24.3807 62.1798 26.0512 61.521 25.8571 59.7859C25.7924 59.2153 25.5571 58.8153 24.9866 58.5977C24.6101 58.4565 24.2396 58.3036 23.869 58.1565C23.7161 58.0977 23.6102 57.9919 23.6514 57.8095C23.6867 57.6389 23.7984 57.5507 23.969 57.5448C24.1925 57.5389 24.416 57.5154 24.6337 57.6095C25.1454 57.833 25.2454 57.7566 25.4277 57.2213C25.5513 56.8625 25.5101 56.6625 25.1395 56.4802C24.7866 56.3155 24.4337 56.3273 24.2043 56.3096ZM65.9309 61.1681C65.9309 60.8413 66.3181 60.7569 66.5224 61.012C66.6336 61.151 66.7402 61.2902 66.825 61.4446C66.9073 61.5916 67.0073 61.7504 67.2132 61.774C67.5779 61.8092 67.9426 61.821 68.3073 61.7681C68.5131 61.7387 68.6602 61.6034 68.5543 61.4034C68.3602 61.0269 68.1543 60.6505 67.9132 60.3093C67.5544 59.8094 67.5132 59.7447 67.9837 59.3388C68.4602 58.9271 68.6661 58.4095 68.5249 57.7919C68.3661 57.1154 68.0073 56.6037 67.272 56.439C66.5309 56.2743 65.7957 56.3743 65.0545 56.3978C64.5428 56.4155 64.4134 56.5508 64.4134 57.0625C64.4134 58.3977 64.4193 59.727 64.4369 61.0622C64.4428 61.7328 64.5016 61.7798 65.1663 61.7975C65.2192 61.7975 65.2663 61.7975 65.3192 61.7975C65.8309 61.7857 65.9251 61.6975 65.9309 61.1681V61.1681ZM14.524 56.7059C13.6408 56.1354 12.4204 56.1109 11.4841 56.5894C10.4764 57.1044 9.808 58.2383 9.96993 59.4447C10.1934 61.1093 11.6757 62.1328 13.1991 61.9386C14.3049 61.7975 15.1637 61.2328 15.5637 60.1211C15.946 59.0624 15.7695 58.0801 15.0872 57.2213C14.9211 57.0113 14.732 56.8402 14.524 56.7059ZM35.7329 61.9445C37.1681 62.0328 38.6916 60.6858 38.621 59.0271C38.5504 57.4566 37.4799 56.2684 35.6271 56.2802C33.8272 56.292 32.7508 57.5448 32.7802 59.133C32.8096 60.7446 33.8742 61.8681 35.7329 61.9445Z" fill="#91BF22"/>
<path d="M44.676 53.7284C44.5115 53.7596 44.3533 53.8931 44.186 53.8962V53.8962C44.0803 53.8981 43.982 53.8408 43.879 53.8177C43.8236 53.8053 43.7642 53.8067 43.7031 53.8098C42.8797 53.8627 42.0444 53.7568 41.2268 53.9392C40.8739 54.0156 40.5034 53.9862 40.1387 53.9274C39.8387 53.8804 39.5328 53.8451 39.2446 53.9509C38.9564 54.0568 38.6623 54.0862 38.3564 54.1039C37.8329 54.1333 37.3036 54.1627 36.7801 54.1921V54.1921C36.5507 54.203 36.312 54.3473 36.0823 54.3492C35.9455 54.3504 35.8086 54.3513 35.6712 54.3524C35.4078 54.3545 35.1319 54.2627 34.8684 54.2627V54.2627C32.0451 54.2627 29.2218 54.2627 26.3925 54.2627C26.321 54.2627 26.2467 54.2557 26.1757 54.2635C26.0275 54.2796 25.8833 54.3602 25.7343 54.3558V54.3558C25.5159 54.3494 25.2923 54.1919 25.074 54.1809C25.0704 54.1807 25.0668 54.1805 25.0632 54.1803C24.6044 54.1509 24.1397 54.1156 23.6809 54.1156C22.0399 54.1039 20.4106 53.898 18.7695 53.8392C18.4218 53.828 18.0581 53.7312 17.7192 53.8802C17.6861 53.8947 17.6502 53.9041 17.6141 53.903V53.903C17.5141 53.9001 17.4344 53.8148 17.3457 53.7684C17.286 53.7371 17.2111 53.7342 17.1402 53.7274C15.6932 53.6216 14.258 53.3804 12.8052 53.351C12.6608 53.346 12.5081 53.32 12.3754 53.3976C12.3269 53.426 12.2734 53.4483 12.2174 53.4438V53.4438C12.1389 53.4375 12.0775 53.3797 12.0273 53.319C11.9224 53.192 11.7463 53.2135 11.5935 53.2039C10.7347 53.151 10.7053 53.1275 10.6642 52.2805C10.6642 52.274 10.6638 52.2675 10.6632 52.2609C10.6559 52.1774 10.6598 52.0935 10.7097 52.0262V52.0262C10.7874 51.9212 10.9329 51.9937 11.0626 52.0089C11.1193 52.0156 11.1772 52.0049 11.2288 51.9805C11.5641 51.8158 11.917 51.8923 12.264 51.8452C12.8287 51.7687 13.3757 51.557 13.9581 51.5923C13.9992 51.5923 14.0522 51.557 14.0933 51.5335C14.8521 51.0688 15.3933 50.4218 15.7697 49.6218C15.905 49.3336 16.1167 49.1219 16.4167 48.9689C17.0049 48.6689 17.6343 48.5101 18.2813 48.4513C18.9107 48.3925 19.4753 48.1043 20.0871 48.0102C20.2254 47.9871 20.3673 47.9279 20.4761 47.8212C20.534 47.7644 20.6051 47.7183 20.6858 47.71V47.71C20.7646 47.7019 20.8393 47.7364 20.9059 47.7792C21.0251 47.8559 21.1644 47.8652 21.2929 47.8102C21.9634 47.5161 22.6987 47.5749 23.3986 47.4631C24.475 47.2926 25.5279 47.0043 26.616 46.8867C27.7454 46.7632 28.8747 46.5691 30.0099 46.4867C30.4628 46.4514 30.9216 46.4573 31.3628 46.375C32.9862 46.0691 34.639 45.9868 36.2742 45.9162C38.8329 45.8044 41.3857 45.6633 43.9502 45.6515C44.756 45.6515 45.5618 45.7103 46.3618 45.675C47.6264 45.6221 48.8675 45.8162 50.1204 45.8279C51.6262 45.8397 53.1261 45.9574 54.6318 46.0397C55.2847 46.075 55.9376 46.1103 56.5788 46.2162C57.4081 46.3632 58.2492 46.475 59.0786 46.4632C59.9903 46.4514 60.8726 46.6573 61.7608 46.7691C62.7431 46.8926 63.7371 47.0338 64.7135 47.2749C65.4664 47.4631 66.2193 47.6396 67.0134 47.6396C67.5486 47.6396 68.0721 47.9043 68.6368 47.8866C68.825 47.8808 69.0132 48.0102 69.1956 48.0925C69.3132 48.1454 69.425 48.1925 69.5485 48.216C70.319 48.369 71.0955 48.5278 71.866 48.6925C72.0836 48.7395 72.3013 48.8042 72.5012 48.9219C73.2188 49.3454 73.9717 49.6806 74.6717 50.1571C75.1717 50.4982 75.701 50.7806 76.1775 51.1864C76.5363 51.4923 76.848 51.8276 77.0068 52.2158C77.2362 52.7804 77.5774 53.0628 78.1597 53.1333C78.4126 53.1628 78.7361 53.251 78.695 53.551C78.6538 53.8627 78.3009 53.798 78.0656 53.798C77.1362 53.8098 76.2069 53.798 75.2834 53.7921C75.1834 53.7921 75.0775 53.798 74.9834 53.7686C73.9835 53.4804 72.9365 53.5333 71.9248 53.4686C70.1367 53.351 68.3368 53.2922 66.5369 53.3392C66.4835 53.3412 66.4288 53.3372 66.3745 53.3361C66.1653 53.3321 65.954 53.4308 65.7447 53.4272C65.6544 53.4257 65.5641 53.4243 65.4738 53.4233C65.2949 53.4214 65.1149 53.2884 64.937 53.2686V53.2686C64.2253 53.1922 63.5136 53.1628 62.8019 53.1804V53.1804C62.6127 53.1804 62.4208 53.2792 62.2316 53.2797C61.7801 53.2808 61.3287 53.2892 60.8772 53.2663C60.6412 53.2543 60.4031 53.1216 60.1668 53.1216V53.1216C59.2904 53.1216 58.4081 53.1157 57.5316 53.1216V53.1216C57.2792 53.1216 57.013 53.2582 56.7605 53.2613C56.3187 53.2666 55.8769 53.2734 55.4351 53.2782C55.2895 53.2798 55.1597 53.1922 55.0142 53.1922V53.1922C54.4613 53.1804 53.9084 53.1392 53.3613 53.2216C53.2932 53.231 53.2166 53.2291 53.1428 53.2374C52.9322 53.2609 52.731 53.4197 52.5191 53.426V53.426C52.3611 53.4307 52.2089 53.3491 52.0515 53.3348C51.9715 53.3275 51.8878 53.3363 51.8085 53.3333C50.3792 53.3157 48.9557 53.3569 47.5264 53.4863C46.6265 53.5686 45.7324 53.6333 44.8325 53.7039C44.7784 53.7139 44.725 53.7192 44.676 53.7284Z" fill="#FDFDFB"/>
<path d="M51.3381 28.1696C51.2321 27.9663 51.0083 27.9763 51.0083 28.2056V28.2056C50.9966 29.7761 50.9848 31.3525 50.973 32.923C50.973 33.1994 51.0554 33.4641 51.0142 33.7464C50.9789 33.9758 51.1495 34.0052 51.3377 33.9582C51.8495 33.8288 52.3553 33.6994 52.867 33.57C53.8317 33.3229 54.7551 33.3994 55.7021 33.7406C57.3197 34.3229 58.5078 35.5051 59.8313 36.511C61.2841 37.6227 62.7193 38.7638 64.378 39.5755C65.0545 39.9049 65.8015 40.046 66.5367 40.0343C67.5955 40.0166 67.9543 40.8342 68.0896 41.6342C68.1366 41.9047 68.1013 42.1871 68.1013 42.4635C68.1013 42.7929 67.9249 42.9458 67.6072 42.9458C66.9779 42.9517 66.3544 42.9164 65.725 42.9576C65.3721 42.9811 65.2368 43.1341 65.2427 43.4811C65.2545 43.8458 65.2309 44.2105 65.2368 44.5751C65.2427 44.8928 65.1015 45.0516 64.7839 45.0163C63.9898 44.9281 63.1899 44.8222 62.4017 44.6869C61.7076 44.5693 61.0077 44.4987 60.3136 44.3869C59.3725 44.2399 58.4137 44.2222 57.4667 44.0987C55.661 43.8517 53.8434 43.7928 52.0259 43.6575C48.5614 43.3929 45.0911 43.4811 41.6207 43.4752C38.9915 43.4693 36.374 43.7222 33.7507 43.8869C32.6213 43.9575 31.5096 44.1516 30.3862 44.2281C28.9333 44.3222 27.4864 44.5163 26.0629 44.8104C25.7394 44.8751 25.4159 44.8692 25.0865 44.8692C24.8159 44.8692 24.6983 44.7281 24.6983 44.4751C24.6924 44.134 24.6865 43.7987 24.6748 43.4576C24.663 43.1341 24.516 42.9752 24.1689 43.0164C23.8984 43.0458 23.616 43.0282 23.3396 43.0282C23.0396 43.0282 22.8631 42.8635 22.8278 42.5753C22.7514 41.8988 22.7867 41.2224 22.9455 40.5519C23.0043 40.3048 23.1808 40.199 23.4219 40.1343C24.1395 39.9401 24.8748 40.0401 25.5982 40.0225C27.4687 39.9696 29.3451 40.0578 31.2155 39.9401C33.0448 39.8225 34.8682 39.6813 36.674 39.3108C37.2445 39.1931 37.8386 39.1167 38.3974 38.9579C39.1268 38.7402 39.8738 38.5579 40.5914 38.2991C41.6737 37.905 42.7677 37.5344 43.8147 37.0521C44.7735 36.6168 45.7381 36.1992 46.7027 35.7698C47.0792 35.5993 47.4497 35.411 47.838 35.264C48.185 35.1346 48.3262 34.9052 48.3085 34.5405C48.2909 34.2405 48.2967 33.9347 48.2909 33.6347C48.2791 33.2053 48.185 33.1347 47.785 33.2582C46.9792 33.5053 46.2145 33.87 45.4558 34.217C44.497 34.6581 43.5324 35.0699 42.5559 35.4757C41.1678 36.0581 39.762 36.5933 38.2974 36.958C36.6387 37.3756 34.9741 37.7226 33.2566 37.7873C33.0742 37.7932 32.9625 37.7344 32.9095 37.5697C32.8389 37.3403 32.7272 37.1109 32.7213 36.8815C32.6978 35.6169 32.5919 34.3523 32.8331 33.0877C33.0331 32.0289 33.3213 31.0172 33.7271 30.029C34.7388 27.541 36.3681 25.5705 38.5797 24.0471C39.8503 23.1765 41.2325 22.5707 42.6971 22.1649C44.1147 21.7708 45.5793 21.7531 47.038 21.8472C48.1085 21.9178 49.1496 22.1178 50.1613 22.4766C52.0847 23.1589 53.7787 24.2 55.2022 25.6587C55.7786 26.2528 56.3374 26.8822 56.7962 27.5645C57.1668 28.1174 57.5314 28.6997 57.7844 29.3291C58.2314 30.4172 58.7843 31.476 58.8372 32.6877C58.8431 32.8053 58.9431 32.9465 58.7961 33.0288C58.6608 33.1112 58.5373 33.0112 58.4137 32.9465C57.8255 32.6406 57.2432 32.3112 56.6433 32.0348C55.5904 31.5407 54.4728 31.4348 53.3317 31.4995C53.0259 31.5172 52.8612 31.3701 52.7435 31.1231C52.5082 30.6231 52.32 30.0996 52.0436 29.6232C51.7763 29.1578 51.5921 28.6563 51.3381 28.1696ZM33.0683 35.0169C33.0683 35.664 33.0625 36.1404 33.0683 36.6227C33.0801 37.2462 33.4213 37.5344 34.0212 37.405C34.5624 37.2874 35.1211 37.2815 35.6505 37.1815C36.4505 37.0345 37.3151 37.105 38.0327 36.5992C38.0974 36.5521 38.2033 36.558 38.2856 36.5404C38.8327 36.4227 39.3915 36.3345 39.9385 36.2345C40.3973 36.1522 40.8855 36.0051 41.2796 35.6757C41.5266 35.4699 41.8384 35.2228 42.1207 35.2169C42.7795 35.211 43.2324 34.7111 43.8323 34.6052C44.2441 34.5287 44.5323 34.1817 44.8911 34.017C45.4734 33.7406 46.1263 33.6229 46.6674 33.2229C47.038 32.9524 47.5027 32.9818 47.9203 32.8583C48.2615 32.7583 48.4614 32.8347 48.5614 33.1524C48.6614 33.4641 48.7438 33.7817 48.8026 34.0994C48.8908 34.5523 48.5261 35.2052 48.1321 35.4522C47.6144 35.7816 47.1262 36.1404 46.4851 36.1757C46.3145 36.1875 46.1792 36.3345 46.0263 36.4227C45.544 36.6874 45.1381 37.0697 44.6088 37.258C44.0794 37.4462 43.5147 37.4991 43.003 37.7285C42.5736 37.9226 42.1266 38.0873 41.7031 38.2991C41.4972 38.3991 41.256 38.3697 41.0796 38.5344C40.7384 38.852 40.3679 39.0696 39.862 38.8814C39.6503 38.8049 39.3797 38.8049 39.1973 38.9108C38.8856 39.099 38.5327 39.1049 38.2209 39.2225C37.2916 39.5813 36.3152 39.6696 35.3564 39.7578C33.7154 39.9166 32.0861 40.2107 30.4215 40.246C28.3981 40.2931 26.3747 40.3284 24.3513 40.2342C23.5102 40.1931 23.0572 40.5754 23.0455 41.4165C23.0396 41.7341 22.9455 42.0635 23.1808 42.3635C23.4455 42.6929 23.7925 42.7223 24.1689 42.7047C24.5042 42.687 24.8218 42.8105 24.8806 43.1282C24.9571 43.5105 25.0924 43.8869 25.1042 44.2693C25.1159 44.6692 25.2747 44.6869 25.5688 44.5987C26.1394 44.4281 26.7393 44.3634 27.3217 44.2516C28.5745 44.0105 29.8627 44.0752 31.1273 43.8575C32.8213 43.5634 34.5506 43.5164 36.2623 43.434C38.8444 43.3046 41.4325 43.187 44.0206 43.1752C45.944 43.1693 47.8615 43.2752 49.7849 43.3046C51.5965 43.334 53.4023 43.4517 55.2022 43.5693C55.7668 43.6046 56.355 43.5223 56.8903 43.6811C57.6785 43.9164 58.4843 43.8164 59.2725 43.9752C59.7666 44.0752 60.3018 44.0458 60.8195 44.1222C61.69 44.2457 62.5488 44.4104 63.4134 44.5516C64.4722 44.7281 64.8251 44.6575 64.9015 43.3811C64.9309 42.84 65.1309 42.6635 65.6838 42.6576C66.1367 42.6517 66.5897 42.6635 67.0426 42.6576C67.472 42.6517 67.6072 42.5164 67.6308 42.0988C67.6425 41.7871 67.6308 41.4753 67.5602 41.1636C67.4661 40.7283 67.0485 40.3695 66.6073 40.3225C66.0603 40.2637 65.4897 40.2342 64.978 40.0637C63.684 39.6402 62.5311 38.9343 61.4429 38.1109C60.9724 37.7579 60.5665 37.3168 60.043 37.0345C59.6725 36.8345 59.4313 36.4757 59.0549 36.2933C58.649 36.0933 58.202 35.9581 57.9549 35.5169C57.8667 35.364 57.6961 35.2346 57.5314 35.1581C57.0021 34.9052 56.5903 34.4934 55.9904 34.3229C55.0492 34.0523 54.1317 33.6053 53.1435 33.9523C52.5259 34.1699 51.9083 34.2582 51.273 34.3288C51.0554 34.3523 50.826 34.3464 50.7731 34.1111C50.6848 33.7111 50.5966 33.2935 50.6201 32.8936C50.6672 32.0407 50.6495 31.1819 50.6319 30.329C50.6142 29.4408 50.626 28.5468 50.7201 27.6645C50.7378 27.4763 50.7436 27.2527 50.9848 27.2233C51.2436 27.188 51.3613 27.388 51.4554 27.588C51.6318 27.9468 51.9965 28.2056 52.0141 28.6527C52.0141 28.7115 52.1024 28.7762 52.1612 28.8174C52.5082 29.0585 52.6494 29.3938 52.6847 29.8114C52.7259 30.2231 52.9729 30.5937 53.2552 30.8407C53.4788 31.0407 53.8846 31.0643 54.214 31.1113C54.8081 31.1937 55.4139 31.176 55.9727 31.4584C56.2374 31.5936 56.5491 31.623 56.8609 31.5936C57.0962 31.576 57.2903 31.6525 57.4373 31.8701C57.5726 32.0642 57.7608 32.223 57.9373 32.3818C58.0549 32.4877 58.1902 32.4759 58.3196 32.3877C58.4373 32.3112 58.4902 32.2112 58.4608 32.0701C58.3431 31.5054 58.1137 30.976 57.8608 30.4643C57.5197 29.782 57.1315 29.1173 56.8785 28.3939C56.8021 28.1821 56.7138 28.0174 56.5433 27.8704C56.1962 27.5645 55.761 27.2822 55.5727 26.894C55.361 26.4469 55.1022 26.0528 54.7669 25.7176C54.4905 25.4352 54.2787 25.047 53.8787 24.9353C53.367 24.7882 53.0317 24.4 52.6729 24.0883C52.0494 23.5471 51.3318 23.2295 50.5966 22.9177C50.1084 22.706 49.5849 22.6236 49.0732 22.506C48.1203 22.2884 47.1733 22.0707 46.1851 22.0472C44.7264 22.0119 43.3206 22.2296 41.9383 22.6883C41.0678 22.9766 40.2149 23.3177 39.4444 23.7942C38.7268 24.2353 38.021 24.7235 37.3975 25.3117C37.0798 25.6117 36.821 25.9411 36.6916 26.3528C36.6328 26.5351 36.5269 26.6528 36.3564 26.7351C35.9623 26.9292 35.6564 27.2116 35.4858 27.6292C35.4505 27.7233 35.3976 27.8292 35.3211 27.8762C35.0682 28.0468 35.0035 28.2821 35.0153 28.5644C35.0212 28.7703 34.9506 28.9526 34.7506 29.0232C34.48 29.1173 34.38 29.3291 34.28 29.5702C34.08 30.082 34.0918 30.6525 33.8154 31.1466C33.5742 31.5701 33.3624 31.9936 33.2801 32.5171C33.1448 33.3935 33.0331 34.2817 33.0683 35.0169Z" fill="#DCEBAA"/>
<path d="M66.5336 53.5538C66.3133 53.5235 66.2965 53.3569 66.5189 53.3569V53.3569C68.3188 53.3099 70.1186 53.3746 71.9067 53.4863C72.9184 53.551 73.9654 53.504 74.9654 53.7863C75.0595 53.8157 75.1654 53.8098 75.2654 53.8098C76.1947 53.8157 77.1241 53.8275 78.0475 53.8157C78.2828 53.8157 78.6357 53.8746 78.6769 53.5687C78.7181 53.2687 78.3887 53.1805 78.1416 53.1511C77.5593 53.0805 77.2182 52.7923 76.9888 52.2335C76.83 51.8453 76.5123 51.51 76.1594 51.2041C75.683 50.7983 75.1595 50.5159 74.6536 50.1748C73.9537 49.7042 73.2008 49.3631 72.4832 48.9396C72.2832 48.8219 72.0714 48.7572 71.8479 48.7102C71.0774 48.5455 70.3069 48.3867 69.5304 48.2337C69.4069 48.2102 69.2952 48.1632 69.1775 48.1102C68.9952 48.0279 68.8011 47.8985 68.6187 47.9044C68.0541 47.922 67.5365 47.6573 66.9953 47.6573C66.2012 47.6632 65.4484 47.4809 64.6955 47.2926C63.7191 47.0515 62.725 46.9103 61.7427 46.7868C60.8545 46.675 59.9781 46.4692 59.0605 46.4809C58.2312 46.4927 57.3901 46.375 56.5607 46.2339C55.9196 46.1221 55.2608 46.0927 54.6138 46.0574C53.1139 45.9692 51.6081 45.8574 50.1023 45.8457C48.8495 45.8339 47.6025 45.6457 46.3437 45.6927C45.5497 45.7221 44.738 45.6633 43.9321 45.6692C41.3735 45.6751 38.8148 45.8221 36.2562 45.9339C34.621 46.0045 32.9681 46.0868 31.3447 46.3927C30.9036 46.475 30.4448 46.475 29.9919 46.5044C28.8567 46.5868 27.7273 46.7809 26.598 46.9044C25.5098 47.0221 24.4569 47.3103 23.3805 47.4809C22.6865 47.5926 21.9453 47.5338 21.2748 47.8279C21.2383 47.8435 21.201 47.8543 21.1634 47.8598C20.9158 47.8966 20.8988 47.5767 21.1454 47.5338V47.5338C22.21 47.3632 23.2747 47.1926 24.3452 47.0221C25.1981 46.8868 26.051 46.7338 26.9097 46.6221C28.1685 46.4574 29.4272 46.3221 30.6859 46.1751C32.2153 45.9927 33.7563 45.881 35.2915 45.7398C36.4444 45.6339 37.6031 45.6457 38.756 45.5692C42.3616 45.3398 45.9732 45.4045 49.5788 45.4986C51.9492 45.5633 54.3314 45.7163 56.6901 45.9692C58.5135 46.1633 60.3428 46.2927 62.1486 46.6162C62.7074 46.7162 63.2838 46.7162 63.8249 46.8515C64.8484 47.1044 65.9013 47.1926 66.9306 47.3809C68.2599 47.622 69.5834 47.9102 70.9068 48.1808C71.8656 48.3749 72.7832 48.7219 73.6537 49.169C74.2419 49.469 74.8007 49.8336 75.3889 50.1395C76.3241 50.6159 76.9594 51.3688 77.3946 52.2982C77.5534 52.6335 77.7828 52.7805 78.1299 52.8629C78.5063 52.957 78.9533 52.957 79.1357 53.4158C79.171 53.5099 79.2063 53.604 79.2298 53.6981C79.3063 54.0157 79.2004 54.151 78.8534 54.1569C77.8358 54.1745 76.8241 54.0157 75.8065 54.004C73.1773 53.9804 70.5598 53.7393 67.9364 53.6216C67.477 53.5954 67.0014 53.6179 66.5336 53.5538Z" fill="#DCEBAA"/>
<path d="M20.216 47.7102C20.3967 47.6721 20.4585 47.8669 20.2927 47.9482C20.2245 47.9817 20.1521 48.0041 20.0808 48.016C19.4632 48.1101 18.8985 48.4042 18.275 48.4572C17.628 48.516 17.0045 48.6748 16.4104 48.9748C16.1104 49.1277 15.8987 49.3395 15.7634 49.6277C15.3928 50.4335 14.8458 51.0747 14.087 51.5393C14.0459 51.5629 13.9929 51.604 13.9518 51.5981C13.3694 51.5629 12.8224 51.7805 12.2578 51.8511C11.9166 51.8981 11.5578 51.8275 11.2225 51.9864V51.9864C11.0182 52.0832 10.972 51.7717 11.1939 51.7282C11.241 51.719 11.2885 51.7122 11.3343 51.704C12.0931 51.5629 12.8518 51.3805 13.6224 51.304C14.187 51.2511 14.5164 50.9335 14.7752 50.5217C15.1399 49.9336 15.5987 49.4159 15.9575 48.8336C16.034 48.7101 16.1104 48.616 16.2634 48.5807C17.5809 48.2925 18.8985 47.9984 20.216 47.7102V47.7102Z" fill="#DCEBAA"/>
<path d="M36.8349 54.404C36.6147 54.4215 36.5659 54.2062 36.7859 54.1862V54.1862C37.3094 54.1568 37.8388 54.1333 38.3623 54.098C38.6622 54.0803 38.9563 54.0509 39.2504 53.9451C39.5386 53.8392 39.8445 53.8745 40.1445 53.9215C40.5092 53.9803 40.8797 54.0097 41.2326 53.9333C42.0561 53.7568 42.8855 53.8568 43.709 53.8039V53.8039C43.873 53.7952 43.8636 53.9616 43.703 53.996C43.3481 54.072 42.9771 54.0475 42.6267 54.0744C40.7386 54.2156 38.8446 54.2921 36.9565 54.3921C36.9158 54.3963 36.8752 54.4008 36.8349 54.404Z" fill="#DCEBAA"/>
<path d="M26.2569 54.4274C26.0911 54.4274 26.0799 54.256 26.2457 54.254C26.2965 54.2534 26.348 54.2568 26.3981 54.2568C29.2215 54.2568 32.0448 54.2568 34.874 54.2568V54.2568C35.0894 54.2568 35.0826 54.4496 34.8676 54.463C34.7426 54.4708 34.6158 54.4626 34.4917 54.4626C31.7448 54.4568 28.9979 54.5038 26.2569 54.4274V54.4274Z" fill="#DCEBAA"/>
<path d="M44.8767 53.9404C44.6564 53.935 44.5893 53.7407 44.8089 53.7216V53.7216C45.7089 53.6452 46.6088 53.5864 47.5029 53.504C48.9263 53.3746 50.3556 53.3334 51.7849 53.3511C51.8229 53.3511 51.8616 53.3491 51.9003 53.3478C52.1044 53.3414 52.0947 53.5178 51.8908 53.5275V53.5275C49.7968 53.5687 47.7146 53.7569 45.6265 53.904C45.3761 53.9192 45.1256 53.9466 44.8767 53.9404Z" fill="#DCEBAA"/>
<path d="M18.772 54.0692C18.3493 54.0455 18.3463 53.8255 18.7694 53.8391V53.8391C20.4104 53.8921 22.0397 54.1038 23.6808 54.1156C24.1396 54.1215 24.6043 54.1568 25.0631 54.1803V54.1803C25.2619 54.1898 25.1932 54.3735 24.9949 54.3909C24.4198 54.4413 23.8454 54.404 23.2749 54.3509C21.9515 54.2274 20.6163 54.2391 19.2929 54.1097C19.1211 54.0889 18.9468 54.0791 18.772 54.0692Z" fill="#DCEBAA"/>
<path d="M12.5581 53.5393C12.4105 53.5196 12.4015 53.3564 12.5498 53.3437C12.6359 53.3363 12.7257 53.3481 12.811 53.351C14.2638 53.3863 15.699 53.6216 17.146 53.7275V53.7275C17.3542 53.7473 17.2863 53.9466 17.0774 53.9548C16.8294 53.9645 16.5805 53.9294 16.3343 53.9098C15.0756 53.7981 13.8168 53.6628 12.5581 53.5393V53.5393Z" fill="#DCEBAA"/>
<path d="M10.5228 52.2308C10.5731 52.183 10.6639 52.217 10.6639 52.2863V52.2863C10.7051 53.1333 10.7345 53.1569 11.5932 53.2098V53.2098C11.9057 53.2293 11.8068 53.4841 11.4951 53.4556C11.0502 53.4149 10.6157 53.2801 10.1698 53.2392C10.1051 53.2333 10.0404 53.1627 10.0698 53.1039C10.2346 52.8155 10.2777 52.4639 10.5228 52.2308Z" fill="#DCEBAA"/>
<path d="M57.5418 53.3313C57.3056 53.3479 57.2656 53.1333 57.5024 53.1333V53.1333C58.3788 53.1333 59.2611 53.1333 60.1375 53.1333V53.1333C60.3469 53.1333 60.3179 53.326 60.1087 53.3156C60.0591 53.3131 60.0096 53.3098 59.961 53.3098C59.1787 53.3215 58.3964 53.3274 57.6082 53.3274C57.5863 53.3283 57.5641 53.3297 57.5418 53.3313Z" fill="#DCEBAA"/>
<path d="M62.776 53.3964C62.599 53.3888 62.6013 53.1922 62.7784 53.1922V53.1922C63.4901 53.1746 64.2077 53.204 64.9135 53.2804V53.2804C65.0867 53.2997 65.0309 53.4939 64.8567 53.4965C64.7458 53.4981 64.6339 53.4835 64.5253 53.4804C63.9548 53.4569 63.3842 53.4275 62.8137 53.3981C62.8012 53.3974 62.7886 53.3969 62.776 53.3964Z" fill="#DCEBAA"/>
<path d="M53.4102 53.4522C53.1349 53.4521 53.0651 53.2768 53.3378 53.2392V53.2392C53.8849 53.1569 54.4378 53.198 54.9907 53.2098C55.024 53.2098 55.0589 53.2254 55.0937 53.2445C55.1381 53.269 55.159 53.3686 55.1083 53.3686V53.3686C54.5398 53.4039 53.9746 53.4523 53.4102 53.4522Z" fill="#DCEBAA"/>
<path d="M33.0683 35.017C33.033 34.2817 33.1506 33.3936 33.2918 32.4936C33.3741 31.9701 33.5859 31.5466 33.8271 31.1231C34.1035 30.629 34.0917 30.0585 34.2917 29.5467C34.3858 29.3056 34.4858 29.0938 34.7623 28.9997C34.9623 28.9291 35.0329 28.7468 35.027 28.5409C35.0152 28.2586 35.0799 28.0233 35.3328 27.8527C35.4093 27.7998 35.4564 27.6939 35.4975 27.6057C35.6622 27.1881 35.974 26.9057 36.3681 26.7116C36.5328 26.6293 36.6445 26.5117 36.7033 26.3293C36.8386 25.9176 37.0915 25.5882 37.4092 25.2882C38.0327 24.7 38.7385 24.2118 39.4561 23.7707C40.2266 23.2942 41.0795 22.9531 41.95 22.6649C43.3323 22.2061 44.7381 21.9884 46.1968 22.0237C47.185 22.0472 48.132 22.259 49.0849 22.4825C49.5966 22.6002 50.1201 22.6825 50.6083 22.8942C51.3435 23.2119 52.0611 23.5236 52.6846 24.0648C53.0434 24.3765 53.3787 24.7706 53.8904 24.9118C54.2845 25.0235 54.5022 25.4176 54.7786 25.6941C55.108 26.0352 55.3668 26.4234 55.5844 26.8705C55.7727 27.2645 56.2079 27.541 56.555 27.8469C56.7255 27.9939 56.8197 28.1586 56.8902 28.3704C57.1432 29.0938 57.5314 29.7526 57.8725 30.4408C58.1313 30.9525 58.3607 31.4819 58.4725 32.0466C58.5019 32.1878 58.449 32.2877 58.3313 32.3642C58.2019 32.4524 58.0666 32.4642 57.949 32.3583C57.7725 32.1995 57.5843 32.0407 57.449 31.8466C57.2961 31.629 57.1079 31.5525 56.8726 31.5701C56.5609 31.5937 56.2491 31.5643 55.9844 31.4349C55.4256 31.1525 54.8198 31.1702 54.2257 31.0878C53.8963 31.0408 53.4905 31.0172 53.267 30.8173C52.9846 30.5702 52.7376 30.1938 52.6964 29.7879C52.6552 29.3703 52.5141 29.0409 52.1729 28.7939C52.1141 28.7527 52.0317 28.688 52.0259 28.6292C52.0082 28.1821 51.6435 27.9233 51.4671 27.5645C51.373 27.3704 51.2494 27.1704 50.9965 27.1998C50.7495 27.2293 50.7495 27.4528 50.7318 27.641C50.6377 28.5292 50.6318 29.4173 50.6436 30.3055C50.6612 31.1584 50.6789 32.0113 50.6318 32.8701C50.6083 33.27 50.6965 33.6877 50.7848 34.0876C50.8377 34.3229 51.0671 34.3288 51.2847 34.3053C51.92 34.2347 52.5376 34.1464 53.1552 33.9288C54.1434 33.5818 55.0609 34.0288 56.0021 34.2994C56.602 34.47 57.0196 34.8876 57.5431 35.1346C57.7078 35.2111 57.8784 35.3405 57.9666 35.4934C58.2196 35.9346 58.6607 36.0698 59.0666 36.2698C59.443 36.4522 59.6842 36.811 60.0547 37.011C60.5782 37.2933 60.9841 37.7344 61.4546 38.0874C62.5428 38.905 63.6957 39.6108 64.9897 40.0402C65.5073 40.2108 66.072 40.2343 66.619 40.299C67.0602 40.346 67.4778 40.7107 67.5719 41.1401C67.6366 41.4518 67.6542 41.7636 67.6425 42.0753C67.6248 42.493 67.4837 42.6282 67.0543 42.6341C66.6014 42.64 66.1485 42.6282 65.6955 42.6341C65.1368 42.64 64.9427 42.8223 64.9132 43.3576C64.8368 44.6399 64.4839 44.7046 63.4251 44.5281C62.5605 44.3869 61.7017 44.2222 60.8312 44.0987C60.3135 44.0281 59.7783 44.0517 59.2842 43.9517C58.496 43.7929 57.6843 43.8929 56.902 43.6576C56.3726 43.4988 55.7785 43.587 55.2139 43.5458C53.4081 43.4282 51.6024 43.3105 49.7966 43.2811C47.8732 43.2517 45.9557 43.14 44.0323 43.1517C41.4442 43.1635 38.8561 43.287 36.274 43.4105C34.5623 43.4929 32.833 43.5399 31.139 43.834C29.8744 44.0576 28.5803 43.987 27.3334 44.2281C26.7511 44.3399 26.1511 44.4046 25.5805 44.5752C25.2864 44.6634 25.1217 44.6458 25.1159 44.2458C25.1041 43.8634 24.9688 43.487 24.8924 43.1047C24.8277 42.7871 24.5159 42.6635 24.1806 42.6812C23.8042 42.6988 23.4572 42.6694 23.1925 42.34C22.9572 42.0459 23.0513 41.7107 23.0572 41.393C23.0689 40.5578 23.5219 40.1755 24.363 40.2107C26.3864 40.3049 28.4098 40.2637 30.4332 40.2225C32.0919 40.1872 33.7212 39.8931 35.3681 39.7343C36.3269 39.6402 37.3033 39.552 38.2326 39.1991C38.5444 39.0814 38.8973 39.0755 39.2091 38.8873C39.3914 38.7755 39.662 38.7756 39.8737 38.8579C40.3737 39.0461 40.7501 38.8285 41.0913 38.5109C41.2736 38.3403 41.5148 38.3756 41.7148 38.2756C42.1383 38.0638 42.5853 37.8991 43.0147 37.705C43.5323 37.4698 44.097 37.4227 44.6205 37.2345C45.1498 37.0463 45.5557 36.6639 46.038 36.3992C46.1909 36.3169 46.3262 36.164 46.4968 36.1522C47.1438 36.1169 47.632 35.7581 48.1438 35.4287C48.5378 35.1758 48.9025 34.5288 48.8143 34.0759C48.7496 33.7582 48.6673 33.4406 48.5731 33.1289C48.4731 32.8112 48.2732 32.7348 47.932 32.8348C47.5144 32.9583 47.0438 32.923 46.6791 33.1994C46.1439 33.5994 45.4851 33.7171 44.9028 33.9935C44.544 34.1641 44.2558 34.5111 43.844 34.5817C43.2382 34.6876 42.7912 35.1876 42.1324 35.1934C41.8442 35.1993 41.5324 35.4464 41.2913 35.6522C40.8972 35.9816 40.409 36.1287 39.9502 36.211C39.3973 36.311 38.8444 36.3992 38.2973 36.5169C38.2091 36.5345 38.1091 36.5286 38.0444 36.5757C37.3268 37.0815 36.4622 37.011 35.6622 37.158C35.127 37.258 34.5741 37.2639 34.0329 37.3815C33.433 37.5109 33.0918 37.2227 33.08 36.5992C33.0624 36.1463 33.0683 35.664 33.0683 35.017Z" fill="#FDFDFB"/>
<rect x="2" y="56" width="85" height="9" fill="#91BF22"/>
<path d="M7.01624 62.7281H5.62123V64.8947H4V59.1053H5.62123V61.2588H7.01624V59.1053H8.63327V64.8947H7.01624V62.7281Z" fill="white"/>
<path d="M11.041 61.9956C11.041 62.2558 11.0912 62.4942 11.1918 62.7105C11.2923 62.924 11.4334 63.095 11.6149 63.2237C11.7964 63.3494 12.0087 63.4123 12.2516 63.4123C12.4974 63.4123 12.7111 63.3494 12.8926 63.2237C13.0741 63.095 13.2152 62.924 13.3157 62.7105C13.4162 62.4942 13.4665 62.2558 13.4665 61.9956C13.4665 61.7354 13.4162 61.4985 13.3157 61.2851C13.2152 61.0716 13.0741 60.9006 12.8926 60.7719C12.7111 60.6433 12.4974 60.5789 12.2516 60.5789C12.0087 60.5789 11.7964 60.6433 11.6149 60.7719C11.4334 60.9006 11.2923 61.0716 11.1918 61.2851C11.0912 61.4985 11.041 61.7354 11.041 61.9956ZM9.34852 61.9956C9.34852 61.5746 9.42113 61.1827 9.56636 60.8202C9.71438 60.4547 9.91965 60.136 10.1822 59.864C10.4447 59.5921 10.7519 59.3801 11.1038 59.2281C11.4585 59.076 11.8411 59 12.2516 59C12.6706 59 13.056 59.076 13.4079 59.2281C13.7626 59.3801 14.0698 59.5921 14.3295 59.864C14.592 60.136 14.7945 60.4547 14.9369 60.8202C15.0822 61.1827 15.1548 61.5746 15.1548 61.9956C15.1548 62.4196 15.085 62.8143 14.9453 63.1798C14.8057 63.5424 14.606 63.8611 14.3463 64.136C14.0893 64.4079 13.7835 64.6199 13.4288 64.7719C13.0741 64.924 12.6817 65 12.2516 65C11.8104 65 11.411 64.924 11.0535 64.7719C10.6988 64.6199 10.3944 64.4079 10.1403 64.136C9.88613 63.8611 9.69064 63.5424 9.55379 63.1798C9.41694 62.8143 9.34852 62.4196 9.34852 61.9956Z" fill="white"/>
<path d="M18.8066 59.1053H20.4278V62.636C20.4278 63.1126 20.3398 63.5278 20.1639 63.8816C19.988 64.2354 19.7282 64.5102 19.3847 64.7061C19.044 64.902 18.6237 65 18.1237 65C17.6238 65 17.2007 64.902 16.8544 64.7061C16.5109 64.5102 16.2512 64.2354 16.0752 63.8816C15.8993 63.5278 15.8113 63.1126 15.8113 62.636V59.1053H17.4325V62.5439C17.4325 62.7573 17.4577 62.9327 17.5079 63.0702C17.5582 63.2047 17.6336 63.3041 17.7342 63.3684C17.8375 63.4327 17.9674 63.4649 18.1237 63.4649C18.2774 63.4649 18.4044 63.4327 18.505 63.3684C18.6055 63.3041 18.6809 63.2047 18.7312 63.0702C18.7815 62.9327 18.8066 62.7573 18.8066 62.5439V59.1053Z" fill="white"/>
<path d="M23.4354 59C23.7928 59 24.1098 59.0409 24.3863 59.1228C24.6656 59.2018 24.8904 59.2866 25.0608 59.3772C25.2339 59.4678 25.34 59.5292 25.3791 59.5614L24.6125 60.9211C24.5678 60.886 24.4896 60.8377 24.3779 60.7763C24.269 60.712 24.1461 60.655 24.0093 60.6053C23.8724 60.5556 23.7412 60.5307 23.6155 60.5307C23.4675 60.5307 23.3446 60.5526 23.2468 60.5965C23.1491 60.6374 23.1002 60.7091 23.1002 60.8114C23.1002 60.8816 23.1267 60.9459 23.1798 61.0044C23.2329 61.0629 23.3222 61.1228 23.4479 61.1842C23.5764 61.2456 23.7509 61.3158 23.9716 61.3947C24.1866 61.4678 24.3835 61.5585 24.5623 61.6667C24.741 61.7749 24.8946 61.9035 25.0231 62.0526C25.1543 62.2018 25.2563 62.3728 25.3289 62.5658C25.4015 62.7588 25.4378 62.9766 25.4378 63.2193C25.4378 63.5409 25.3736 63.8158 25.2451 64.0439C25.1194 64.269 24.9505 64.4518 24.7382 64.5921C24.5259 64.7325 24.2886 64.8348 24.026 64.8991C23.7663 64.9664 23.5024 65 23.2343 65C22.8237 65 22.4579 64.9532 22.1367 64.8596C21.8183 64.7661 21.56 64.6652 21.3617 64.557C21.1662 64.4459 21.0461 64.367 21.0014 64.3202L21.7932 62.9035C21.8239 62.9298 21.8895 62.9722 21.9901 63.0307C22.0934 63.0892 22.2163 63.1506 22.3587 63.2149C22.5039 63.2792 22.6534 63.3348 22.807 63.3816C22.9606 63.4254 23.103 63.4474 23.2343 63.4474C23.4102 63.4474 23.5401 63.4211 23.6239 63.3684C23.7076 63.3158 23.7495 63.2398 23.7495 63.1404C23.7495 63.0702 23.723 63.0044 23.6699 62.943C23.6197 62.8816 23.5275 62.8173 23.3935 62.75C23.2622 62.6798 23.0751 62.5994 22.8321 62.5088C22.5975 62.4181 22.3741 62.2997 22.1618 62.1535C21.9496 62.0073 21.7764 61.8173 21.6424 61.5833C21.5083 61.3494 21.4413 61.057 21.4413 60.7061C21.4413 60.3494 21.5362 60.0439 21.7261 59.7895C21.9161 59.5351 22.1632 59.3406 22.4676 59.2061C22.7721 59.0687 23.0946 59 23.4354 59Z" fill="white"/>
<path d="M26.0834 59.1053H29.795V60.5789H27.7046V61.2807H29.795V62.7061H27.7046V63.4211H29.795V64.8947H26.0834V59.1053Z" fill="white"/>
<path d="M34.5153 61.9956C34.5153 62.2558 34.5656 62.4942 34.6661 62.7105C34.7667 62.924 34.9077 63.095 35.0892 63.2237C35.2708 63.3494 35.483 63.4123 35.726 63.4123C35.9718 63.4123 36.1854 63.3494 36.3669 63.2237C36.5485 63.095 36.6895 62.924 36.7901 62.7105C36.8906 62.4942 36.9409 62.2558 36.9409 61.9956C36.9409 61.7354 36.8906 61.4985 36.7901 61.2851C36.6895 61.0716 36.5485 60.9006 36.3669 60.7719C36.1854 60.6433 35.9718 60.5789 35.726 60.5789C35.483 60.5789 35.2708 60.6433 35.0892 60.7719C34.9077 60.9006 34.7667 61.0716 34.6661 61.2851C34.5656 61.4985 34.5153 61.7354 34.5153 61.9956ZM32.8229 61.9956C32.8229 61.5746 32.8955 61.1827 33.0407 60.8202C33.1887 60.4547 33.394 60.136 33.6565 59.864C33.919 59.5921 34.2263 59.3801 34.5781 59.2281C34.9328 59.076 35.3154 59 35.726 59C36.1449 59 36.5303 59.076 36.8822 59.2281C37.2369 59.3801 37.5441 59.5921 37.8038 59.864C38.0664 60.136 38.2688 60.4547 38.4113 60.8202C38.5565 61.1827 38.6291 61.5746 38.6291 61.9956C38.6291 62.4196 38.5593 62.8143 38.4197 63.1798C38.28 63.5424 38.0803 63.8611 37.8206 64.136C37.5637 64.4079 37.2578 64.6199 36.9032 64.7719C36.5485 64.924 36.1561 65 35.726 65C35.2847 65 34.8854 64.924 34.5279 64.7719C34.1732 64.6199 33.8688 64.4079 33.6146 64.136C33.3605 63.8611 33.165 63.5424 33.0281 63.1798C32.8913 62.8143 32.8229 62.4196 32.8229 61.9956Z" fill="white"/>
<path d="M40.7644 60.6491L40.8859 60.6711V64.8947H39.2647V59.1053H41.4557L43.2612 63.3158L43.1397 63.3421V59.1053H44.761V64.8947H42.5574L40.7644 60.6491Z" fill="white"/>
<path d="M48.8477 60.5789H47.6538V59.1053H51.6629V60.5789H50.469V64.8947H48.8477V60.5789Z" fill="white"/>
<path d="M55.2741 62.7281H53.879V64.8947H52.2578V59.1053H53.879V61.2588H55.2741V59.1053H56.8911V64.8947H55.2741V62.7281Z" fill="white"/>
<path d="M57.7153 59.1053H61.4269V60.5789H59.3365V61.2807H61.4269V62.7061H59.3365V63.4211H61.4269V64.8947H57.7153V59.1053Z" fill="white"/>
<path d="M64.5218 59.1053H67.0018C67.3369 59.1053 67.6329 59.1798 67.8899 59.3289C68.1468 59.4751 68.3479 59.6857 68.4931 59.9605C68.6384 60.2325 68.711 60.5556 68.711 60.9298C68.711 61.3012 68.6523 61.6023 68.535 61.8333C68.4205 62.0614 68.2823 62.2325 68.1203 62.3465C67.9583 62.4605 67.8089 62.5336 67.672 62.5658L68.9958 64.8947H67.1777L66.0382 62.6974H66.1472V64.8947H64.5218V59.1053ZM66.1472 61.5482H66.4153C66.5633 61.5482 66.7043 61.5117 66.8384 61.4386C66.9752 61.3655 67.0437 61.2149 67.0437 60.9868C67.0437 60.7588 66.978 60.6082 66.8468 60.5351C66.7155 60.462 66.5759 60.4254 66.4278 60.4254H66.1472V61.5482Z" fill="white"/>
<path d="M70.9173 61.9956C70.9173 62.2558 70.9676 62.4942 71.0681 62.7105C71.1687 62.924 71.3097 63.095 71.4912 63.2237C71.6728 63.3494 71.885 63.4123 72.128 63.4123C72.3738 63.4123 72.5874 63.3494 72.7689 63.2237C72.9505 63.095 73.0915 62.924 73.1921 62.7105C73.2926 62.4942 73.3429 62.2558 73.3429 61.9956C73.3429 61.7354 73.2926 61.4985 73.1921 61.2851C73.0915 61.0716 72.9505 60.9006 72.7689 60.7719C72.5874 60.6433 72.3738 60.5789 72.128 60.5789C71.885 60.5789 71.6728 60.6433 71.4912 60.7719C71.3097 60.9006 71.1687 61.0716 71.0681 61.2851C70.9676 61.4985 70.9173 61.7354 70.9173 61.9956ZM69.2249 61.9956C69.2249 61.5746 69.2975 61.1827 69.4427 60.8202C69.5907 60.4547 69.796 60.136 70.0585 59.864C70.3211 59.5921 70.6283 59.3801 70.9802 59.2281C71.3348 59.076 71.7175 59 72.128 59C72.5469 59 72.9323 59.076 73.2842 59.2281C73.6389 59.3801 73.9461 59.5921 74.2058 59.864C74.4684 60.136 74.6709 60.4547 74.8133 60.8202C74.9585 61.1827 75.0311 61.5746 75.0311 61.9956C75.0311 62.4196 74.9613 62.8143 74.8217 63.1798C74.682 63.5424 74.4823 63.8611 74.2226 64.136C73.9657 64.4079 73.6599 64.6199 73.3052 64.7719C72.9505 64.924 72.5581 65 72.128 65C71.6867 65 71.2874 64.924 70.9299 64.7719C70.5752 64.6199 70.2708 64.4079 70.0166 64.136C69.7625 63.8611 69.567 63.5424 69.4301 63.1798C69.2933 62.8143 69.2249 62.4196 69.2249 61.9956Z" fill="white"/>
<path d="M78.7625 63.3158C78.958 63.3158 79.1465 63.2836 79.3281 63.2193C79.5124 63.155 79.6548 63.0906 79.7554 63.0263L80.4466 64.4649C80.3125 64.5819 80.0849 64.7003 79.7638 64.8202C79.4426 64.9401 79.0642 65 78.6285 65C78.2207 65 77.8353 64.9269 77.4723 64.7807C77.1092 64.6316 76.7866 64.4225 76.5046 64.1535C76.2253 63.8845 76.006 63.5687 75.8468 63.2061C75.6877 62.8406 75.6081 62.4415 75.6081 62.0088C75.6081 61.576 75.6877 61.1769 75.8468 60.8114C76.006 60.443 76.2253 60.1243 76.5046 59.8553C76.7838 59.5833 77.105 59.3728 77.4681 59.2237C77.8339 59.0746 78.2207 59 78.6285 59C79.0642 59 79.4426 59.0599 79.7638 59.1798C80.0849 59.2997 80.3125 59.4181 80.4466 59.5351L79.7554 60.9737C79.6548 60.9094 79.5124 60.845 79.3281 60.7807C79.1465 60.7164 78.958 60.6842 78.7625 60.6842C78.4972 60.6842 78.2752 60.7237 78.0965 60.8026C77.9177 60.8816 77.7739 60.9868 77.665 61.1184C77.5588 61.2471 77.482 61.3889 77.4346 61.5439C77.3899 61.6959 77.3675 61.8465 77.3675 61.9956C77.3675 62.1477 77.3899 62.3012 77.4346 62.4561C77.482 62.6111 77.5588 62.7544 77.665 62.886C77.7739 63.0146 77.9177 63.1184 78.0965 63.1974C78.2752 63.2763 78.4972 63.3158 78.7625 63.3158Z" fill="white"/>
<path d="M84.0101 61.8553L86 64.8947H84.0688L82.6151 62.4605V64.8947H80.9939V59.1053H82.6151V61.2807L83.9305 59.1053H85.7528L84.0101 61.8553Z" fill="white"/>
</g>
</svg>
